<?xml version="1.0" encoding="UTF-8" standalone="no" ?>
<!DOCTYPE svg PUBLIC "-//W3C//DTD SVG 1.1//EN" "http://www.w3.org/Graphics/SVG/1.1/DTD/svg11.dtd">
<svg xmlns="http://www.w3.org/2000/svg" xmlns:xlink="http://www.w3.org/1999/xlink" version="1.1" width="1080" height="1080" viewBox="0 0 1080 1080" xml:space="preserve">
<desc>Created with Fabric.js 5.2.4</desc>
<defs>
</defs>
<g transform="matrix(1 0 0 1 540 540)" id="c4f18486-6713-432d-b28f-c6f40f1a5e32"  >
<rect style="stroke: none; stroke-width: 1; stroke-dasharray: none; stroke-linecap: butt; stroke-dashoffset: 0; stroke-linejoin: miter; stroke-miterlimit: 4; fill: rgb(255,255,255); fill-rule: nonzero; opacity: 1; visibility: hidden;" vector-effect="non-scaling-stroke"  x="-540" y="-540" rx="0" ry="0" width="1080" height="1080" />
</g>
<g transform="matrix(1 0 0 1 540 540)" id="bb4c7a07-9f48-40b8-a85b-19383680cdb3"  >
</g>
<g transform="matrix(1 0 0 1 540 540)"  >
<g style="" vector-effect="non-scaling-stroke"   >
		<g transform="matrix(1 0 0 1 0 0)"  >
<path style="stroke: none; stroke-width: 1; stroke-dasharray: none; stroke-linecap: butt; stroke-dashoffset: 0; stroke-linejoin: miter; stroke-miterlimit: 4; fill: rgb(255,255,255); fill-rule: nonzero; opacity: 1;" vector-effect="non-scaling-stroke"  transform=" translate(-323, -426.9)" d="M 140.629 0.239929 C 132.66 1.52725 123.097 5.69568 116.354 10.845 C 95.941 26.3541 80.1253 59.2728 73.4435 100.283 C 70.9302 115.792 69.2138 137.309 69.2138 153.738 C 69.2138 173.109 71.4819 197.874 74.7309 214.977 C 75.4665 218.778 75.8343 222.15 75.5278 222.395 C 75.2826 222.64 72.2788 225.092 68.9072 227.789 C 57.3827 236.984 44.2029 251.145 35.1304 264.08 C 17.7209 288.784 6.44151 316.86 1.72133 347.265 C -0.117698 359.28 -0.608106 383.555 0.863118 395.57 C 4.11207 423.278 12.449 446.695 26.7321 468.151 L 31.391 475.078 L 30.0424 477.346 C 20.4794 493.407 12.3264 516.64 8.52575 538.953 C 5.522 556.608 5.15419 561.328 5.15419 584.99 C 5.15419 608.837 5.4607 613.557 8.28054 630.047 C 11.6521 649.786 18.5178 670.689 26.1804 684.605 C 28.6938 689.141 34.8239 698.581 35.5595 699.072 C 35.8047 699.194 35.0691 701.462 33.9044 704.098 C 25.077 723.408 17.537 749.093 14.4106 770.733 C 12.2038 785.567 11.8973 790.349 11.8973 805.981 C 11.8973 825.903 13.0007 835.589 17.1692 851.466 L 17.7822 853.795 L 44.019 853.795 L 70.3172 853.795 L 68.6007 850.546 C 57.9957 830.93 57.0149 794.517 66.1487 758.166 C 70.3172 741.369 75.0374 729.048 83.8647 712.067 L 89.1366 701.769 L 89.1366 695.455 C 89.1366 689.57 89.014 688.896 87.1137 685.034 C 85.6424 682.091 83.6808 679.578 80.1866 676.145 C 74.2404 670.383 69.9494 664.314 66.5165 656.835 C 51.4365 624.1 48.494 575.489 59.0991 534.049 C 63.5128 516.762 70.8076 501.376 78.4702 492.978 C 83.6808 487.215 86.378 480.779 86.378 474.097 C 86.378 467.17 83.926 461.469 78.4089 455.523 C 62.5932 438.604 52.8464 418.006 49.3522 394.038 C 44.3868 359.893 53.3981 322.683 73.8726 293.198 C 93.9181 264.263 122.055 245.689 153.503 240.724 C 160.552 239.559 173.732 239.743 181.088 241.092 C 189.119 242.502 194.145 242.072 199.295 239.62 C 205.67 236.617 208.858 232.877 212.597 224.295 C 215.907 216.633 218.482 212.464 225.409 203.821 C 233.746 193.461 241.776 186.411 254.649 177.89 C 269.362 168.266 286.097 161.278 302.771 157.906 C 308.839 156.68 311.659 156.496 323 156.496 C 334.341 156.496 337.161 156.68 343.229 157.906 C 367.688 162.872 391.964 175.5 411.335 193.399 C 415.503 197.261 425.495 209.644 428.683 214.794 C 429.909 216.816 432.055 221.108 433.403 224.295 C 437.142 232.877 440.33 236.617 446.705 239.62 C 451.671 242.011 456.881 242.502 464.605 241.214 C 476.804 239.13 486.183 239.314 498.137 241.766 C 538.841 249.98 574.273 283.512 589.966 328.446 C 603.636 367.862 599.774 409.118 579.422 440.626 C 575.989 445.96 572.556 450.251 567.591 455.523 C 556.863 466.986 556.863 481.208 567.53 492.978 C 585.062 512.165 596.035 559.367 592.724 600.99 C 590.518 628.453 583.468 653.035 573.782 666.95 C 572.066 669.402 568.511 673.57 565.813 676.145 C 562.319 679.578 560.358 682.091 558.886 685.034 C 556.986 688.896 556.863 689.57 556.863 695.455 L 556.863 701.769 L 562.135 712.067 C 570.963 729.048 575.683 741.369 579.851 758.166 C 588.863 794.027 588.066 829.704 577.767 849.995 C 576.909 851.711 576.173 853.305 576.173 853.489 C 576.173 853.673 587.882 853.795 602.226 853.795 L 628.218 853.795 L 628.892 851.159 C 629.26 849.75 629.873 847.604 630.179 846.378 C 630.854 843.681 632.202 835.712 633.306 828.049 C 634.348 820.325 634.348 791.881 633.306 783.299 C 629.383 752.158 622.823 727.454 612.096 704.098 C 610.931 701.462 610.195 699.194 610.44 699.072 C 610.747 698.888 612.463 696.436 614.302 693.677 C 627.666 673.448 635.88 648.008 640.049 614.415 C 641.152 605.158 641.152 565.374 640.049 556.485 C 637.106 533.559 633.551 517.988 627.666 502.234 C 625.214 495.675 618.716 481.821 615.958 477.346 L 614.609 475.078 L 619.268 468.151 C 633.551 446.695 641.888 423.278 645.137 395.57 C 646.608 383.555 646.118 359.28 644.279 347.265 C 639.497 316.798 628.279 288.845 610.87 264.08 C 601.797 251.145 588.617 236.984 577.093 227.789 C 573.721 225.092 570.717 222.64 570.472 222.395 C 570.166 222.15 570.534 218.778 571.269 214.977 C 578.687 176.296 578.441 128.053 570.656 90.3524 C 563.913 57.4951 551.653 31.3808 535.837 16.3008 C 523.209 4.28578 510.336 -0.863507 494.888 0.11731 C 459.456 2.20154 430.89 42.9667 419.61 107.21 C 417.771 117.57 416.178 129.708 416.178 133.018 C 416.178 134.305 415.932 135.347 415.626 135.347 C 415.319 135.347 412.929 134.121 410.354 132.589 C 383.014 116.405 352.608 107.762 323 107.762 C 293.392 107.762 262.986 116.405 235.646 132.589 C 233.071 134.121 230.681 135.347 230.374 135.347 C 230.068 135.347 229.822 134.305 229.822 133.018 C 229.822 129.585 228.167 117.08 226.39 107.21 C 216.152 49.5259 192.674 11.3354 161.472 1.71112 C 157.181 0.423799 144.982 -0.434382 140.629 0.239929 Z M 151.051 50.139 C 159.878 57.1273 169.686 77.1114 175.326 99.4863 C 176.368 103.532 177.471 108.191 177.778 109.907 C 178.023 111.563 178.697 115.302 179.249 118.183 C 181.64 131.179 182.743 145.217 182.866 162.32 L 182.927 179.178 L 178.697 185.43 L 174.468 191.744 L 164.598 191.744 C 153.074 191.744 141.61 193.216 130.637 196.158 C 126.714 197.139 122.913 198.12 122.178 198.304 C 121.013 198.549 120.829 198.181 120.155 193.154 C 116.538 165.875 116.722 135.654 120.707 110.52 C 125.12 82.5059 135.419 57.1273 145.472 49.6486 C 147.863 47.8708 148.292 47.9321 151.051 50.139 Z M 500.589 49.7098 C 506.658 54.1848 513.34 66.0772 518.305 81.2798 C 528.297 111.685 531.117 153.431 525.845 193.154 C 525.171 198.181 524.987 198.549 523.822 198.304 C 523.087 198.12 519.286 197.139 515.363 196.158 C 504.39 193.216 492.926 191.744 481.402 191.744 L 471.532 191.744 L 467.303 185.43 L 463.073 179.178 L 463.134 162.32 C 463.257 138.535 465.464 119.961 470.735 99.3024 C 476.314 77.1114 486.183 57.1273 494.949 50.139 C 497.708 47.9321 498.137 47.8708 500.589 49.7098 Z" stroke-linecap="round" />
</g>
		<g transform="matrix(1 0 0 1 0 34.07)"  >
<path style="stroke: none; stroke-width: 1; stroke-dasharray: none; stroke-linecap: butt; stroke-dashoffset: 0; stroke-linejoin: miter; stroke-miterlimit: 4; fill: rgb(255,255,255); fill-rule: nonzero; opacity: 1;" vector-effect="non-scaling-stroke"  transform=" translate(-323, -460.97)" d="M 313.498 358.237 C 300.195 359.525 296.579 360.015 290.203 361.303 C 279.843 363.448 265.989 368.23 256.365 372.95 C 222.895 389.317 199.846 416.596 192.796 448.166 C 191.386 454.419 191.202 456.503 191.202 467.047 C 191.202 477.468 191.386 479.736 192.735 485.682 C 202.114 526.938 240.12 557.405 289.284 562.983 C 299.95 564.148 346.049 564.148 356.715 562.983 C 396.193 558.508 430.154 537.114 445.418 507.076 C 449.463 499.046 451.425 493.835 453.264 485.682 C 454.613 479.736 454.797 477.468 454.797 467.047 C 454.797 456.503 454.613 454.419 453.203 448.166 C 442.965 402.313 398.461 366.207 343.903 359.341 C 336.792 358.483 318.157 357.747 313.498 358.237 Z M 336.424 391.585 C 354.631 393.547 372.96 400.045 387.672 409.853 C 395.58 415.125 406.737 426.159 411.518 433.393 C 417.403 442.342 420.774 451.476 422.307 462.572 C 422.981 467.66 422.614 471.522 420.774 479.736 C 417.893 491.996 408.943 504.808 396.867 513.758 C 391.227 517.865 379.519 523.812 372.347 526.141 C 358.738 530.493 349.849 531.29 318.095 531.045 C 297.376 530.861 293.697 530.677 287.751 529.574 C 267.461 525.773 251.4 517.681 239.753 505.36 C 230.312 495.429 226.021 486.357 223.692 471.706 C 222.65 464.901 224.611 453.622 228.596 444.12 C 233.439 432.534 245.944 418.129 258.327 409.853 C 272.671 400.29 291.552 393.486 308.9 391.647 C 315.582 390.911 329.742 390.911 336.424 391.585 Z" stroke-linecap="round" />
</g>
		<g transform="matrix(1 0 0 1 -0.87 39.14)"  >
<path style="stroke: none; stroke-width: 1; stroke-dasharray: none; stroke-linecap: butt; stroke-dashoffset: 0; stroke-linejoin: miter; stroke-miterlimit: 4; fill: rgb(255,255,255); fill-rule: nonzero; opacity: 1;" vector-effect="non-scaling-stroke"  transform=" translate(-322.13, -466.04)" d="M 299.584 436.336 C 294.925 438.849 291.676 445.224 292.657 449.944 C 293.76 455.032 298.235 460.182 305.223 464.412 C 308.963 466.68 309.208 466.986 309.392 469.254 C 309.514 470.603 309.024 474.465 308.35 477.898 C 307.614 481.269 307.062 484.825 307.062 485.806 C 307.124 488.442 309.576 492.733 312.15 494.817 C 314.419 496.656 314.848 496.717 321.223 496.901 C 327.047 497.085 328.273 496.962 330.602 495.859 C 336.61 492.916 338.142 487.522 335.935 477.162 C 334.096 468.519 334.464 467.17 339.062 464.534 C 343.904 461.714 349.054 456.749 350.586 453.377 C 353.529 446.941 350.831 439.646 344.333 436.274 C 342.74 435.477 340.778 435.11 337.897 435.11 C 333.422 435.11 330.541 436.152 325.269 439.523 L 322.265 441.424 L 320.365 440.259 C 312.58 435.661 311.17 435.11 306.449 435.171 C 303.078 435.171 301.239 435.477 299.584 436.336 Z" stroke-linecap="round" />
</g>
		<g transform="matrix(1 0 0 1 -165.27 -29.04)"  >
<path style="stroke: none; stroke-width: 1; stroke-dasharray: none; stroke-linecap: butt; stroke-dashoffset: 0; stroke-linejoin: miter; stroke-miterlimit: 4; fill: rgb(255,255,255); fill-rule: nonzero; opacity: 1;" vector-effect="non-scaling-stroke"  transform=" translate(-157.73, -397.85)" d="M 150.744 365.165 C 139.894 368.598 131.802 376.567 127.634 387.908 C 125.611 393.303 124.63 401.824 125.488 406.421 C 127.511 417.394 136.522 427.386 146.76 430.145 C 159.633 433.516 169.257 431.309 177.778 422.85 C 182.743 418.007 185.441 413.777 188.138 406.911 C 190.099 402.069 190.222 401.211 190.222 394.345 L 190.283 386.989 L 187.709 381.717 C 183.601 373.38 176.184 367.188 167.602 364.92 C 162.759 363.694 154.974 363.756 150.744 365.165 Z" stroke-linecap="round" />
</g>
		<g transform="matrix(1 0 0 1 165.29 -29.04)"  >
<path style="stroke: none; stroke-width: 1; stroke-dasharray: none; stroke-linecap: butt; stroke-dashoffset: 0; stroke-linejoin: miter; stroke-miterlimit: 4; fill: rgb(255,255,255); fill-rule: nonzero; opacity: 1;" vector-effect="non-scaling-stroke"  transform=" translate(-488.29, -397.86)" d="M 478.153 364.982 C 469.755 367.25 462.276 373.502 458.291 381.717 L 455.717 386.989 L 455.778 394.345 C 455.778 401.211 455.901 402.069 457.862 406.911 C 460.56 413.777 463.257 418.007 468.222 422.85 C 476.743 431.309 486.367 433.516 499.241 430.145 C 506.658 428.183 514.075 421.93 517.631 414.635 C 520.696 408.444 521.431 403.969 520.451 396.919 C 518.183 380.797 508.742 369.089 494.704 364.982 C 490.597 363.756 482.628 363.756 478.153 364.982 Z" stroke-linecap="round" />
</g>
</g>
</g>
</svg>