<svg version="1.1" id="Layer_1" xmlns="http://www.w3.org/2000/svg" xmlns:xlink="http://www.w3.org/1999/xlink" x="0px" y="0px"
	 width="100%" viewBox="0 0 512 512" enable-background="new 0 0 512 512" xml:space="preserve">

<path fill="#2C394A" opacity="1.000000" stroke="none" 
	d="
M376.915619,249.015015 
	C385.459290,253.739151 393.955109,258.552612 402.558838,263.164703 
	C413.254700,268.898346 414.551270,282.528198 404.778076,289.811707 
	C374.665192,312.253510 344.472351,334.588196 314.283508,356.927948 
	C280.235199,382.123688 246.183273,407.314758 212.084869,432.442688 
	C181.460068,455.010864 150.759247,477.475830 120.119240,500.023407 
	C114.680885,504.025421 109.376060,508.208923 104.004784,512.654297 
	C98.977905,513.000000 93.955818,513.000000 88.474396,512.652344 
	C86.623077,510.673096 85.323929,508.950256 83.824486,507.424255 
	C71.236404,494.613403 58.611626,481.838593 46.125629,468.736603 
	C47.815594,466.489960 49.217339,464.399292 50.963104,462.652435 
	C133.544952,380.017700 216.154785,297.410980 298.780151,214.819702 
	C300.179443,213.420975 301.807404,212.250931 303.671661,210.987244 
	C309.076599,213.278778 314.138580,215.557236 319.490356,218.014786 
	C329.522919,223.443161 339.265656,228.692444 349.179199,234.239014 
	C358.538513,239.362534 367.727081,244.188782 376.915619,249.015015 
z"/>
<path fill="#495566" opacity="1.000000" stroke="none" 
	d="
M303.328674,210.974182 
	C301.807404,212.250931 300.179443,213.420975 298.780151,214.819702 
	C216.154785,297.410980 133.544952,380.017700 50.963104,462.652435 
	C49.217339,464.399292 47.815594,466.489960 45.830875,468.575928 
	C31.754333,455.135590 18.105711,441.534149 4.435708,427.954224 
	C3.366940,426.892517 2.148758,425.981201 1.000001,425.000000 
	C1.000000,420.310760 1.000000,415.621490 0.999998,410.466125 
	C3.482013,407.326019 6.247439,404.861176 8.399844,401.944000 
	C21.888117,383.663177 35.186810,365.242523 48.650166,346.943176 
	C64.954483,324.782379 81.364098,302.699066 97.720161,280.576324 
	C114.573326,257.781250 131.431168,234.989578 148.259827,212.176422 
	C160.376160,195.751343 172.440903,179.288208 184.542618,162.852341 
	C190.820984,154.325424 198.093140,152.711212 207.381882,157.753967 
	C215.371643,162.091568 223.354126,166.442551 231.832993,171.224106 
	C240.018051,175.889008 247.675980,180.181442 255.428680,184.295242 
	C257.105774,185.185135 259.123718,185.432663 261.137390,186.290741 
	C270.851074,191.752655 280.412048,196.899918 290.123199,202.352905 
	C294.625153,205.430481 298.976929,208.202332 303.328674,210.974182 
z"/>

<path fill="#FFA24B" opacity="1.000000" stroke="none" 
	d="
M456.077606,148.916092 
	C463.949982,150.611359 471.810577,152.364120 479.698212,153.985046 
	C486.990356,155.483582 494.540314,156.161926 501.532837,158.518631 
	C505.635681,159.901398 508.871460,163.856796 512.748657,166.327499 
	C513.000000,170.689255 513.000000,175.378510 513.000000,180.533875 
	C511.649475,182.178589 510.225311,183.283386 508.959534,184.546875 
	C489.782837,203.689545 470.645233,222.871399 451.449951,241.995377 
	C447.833069,245.598846 443.170349,246.566788 438.374084,245.657867 
	C423.903351,242.915558 409.483093,239.906876 395.045288,236.991470 
	C393.630798,236.705841 392.231110,236.347061 390.060699,235.919067 
	C384.648956,234.164017 379.689026,233.077057 375.428650,230.723648 
	C369.512482,227.455566 369.430817,220.719345 367.772095,214.610382 
	C366.442047,207.830978 365.173035,201.443481 364.337952,195.029846 
	C372.773499,196.474625 380.879791,197.532761 388.748657,199.527359 
	C397.386353,201.716843 404.078125,199.832504 410.319977,193.326355 
	C423.584778,179.499817 437.312469,166.116150 450.920410,152.621582 
	C452.404694,151.149673 454.347504,150.140106 456.077606,148.916092 
z"/>
<path fill="#FFC943" opacity="1.000000" stroke="none" 
	d="
M347.533875,0.999997 
	C347.812439,1.214601 347.624908,1.429208 347.437378,1.643817 
	C356.522797,6.676198 356.179413,16.104776 357.968048,24.473621 
	C360.431427,35.999393 362.673187,47.572529 364.758972,59.704018 
	C338.621033,86.079956 312.726532,111.869736 286.878937,137.706451 
	C285.994629,138.590363 285.580780,139.944946 284.631409,140.924866 
	C282.262695,135.477188 280.210175,130.184799 278.157684,124.892418 
	C275.576508,111.879272 272.759766,98.906479 270.520355,85.834778 
	C269.504669,79.905945 266.184296,74.019470 269.023376,67.781754 
	C269.938660,65.770760 270.955994,63.631329 272.477997,62.097973 
	C291.104462,43.332726 309.825867,24.661665 328.549835,5.993453 
	C330.152893,4.395180 331.949707,2.991215 333.328247,1.248491 
	C337.689240,1.000000 342.378510,1.000000 347.533875,0.999997 
z"/>

<path fill="#101C2B" opacity="1.000000" stroke="none" 
	d="
M277.856445,125.059494 
	C280.210175,130.184799 282.262695,135.477188 284.796692,141.245712 
	C290.205444,143.452271 295.132690,145.182678 299.766937,147.083572 
	C286.644196,160.161407 273.814423,173.068741 260.984650,185.976074 
	C259.123718,185.432663 257.105774,185.185135 255.428680,184.295242 
	C247.675980,180.181442 240.018051,175.889008 232.153946,171.370148 
	C239.385956,163.488342 246.733994,155.841156 254.209915,148.321060 
	C261.926880,140.558502 269.768219,132.919571 277.856445,125.059494 
z"/>
<path fill="#111C2B" opacity="1.000000" stroke="none" 
	d="
M367.833130,215.002289 
	C369.430817,220.719345 369.512482,227.455566 375.428650,230.723648 
	C379.689026,233.077057 384.648956,234.164017 389.650909,235.990387 
	C385.843933,240.345215 381.682861,244.525543 377.218719,248.860443 
	C367.727081,244.188782 358.538513,239.362534 349.342743,233.955200 
	C355.501404,227.250183 361.667267,221.126236 367.833130,215.002289 
z"/>

<path fill="#101D2B" opacity="1.000000" stroke="none" 
	d="
M345.026489,191.149612 
	C336.503693,199.856247 327.980865,208.562897 319.329285,217.552612 
	C314.138580,215.557236 309.076599,213.278778 303.671661,210.987244 
	C298.976929,208.202332 294.625153,205.430481 290.282166,202.055893 
	C301.142853,190.619263 311.994751,179.785355 322.925659,169.350906 
	C323.344269,171.162079 323.826538,172.556610 323.999115,173.988449 
	C324.805481,180.677826 328.238922,185.715317 334.210266,188.501083 
	C337.509491,190.040237 341.401642,190.308456 345.026489,191.149612 
z"/>

<path fill="#FF7364" opacity="1.000000" stroke="none" 
	d="
M322.925659,169.350906 
	C321.571045,162.936020 320.295410,156.920593 319.384521,150.495987 
	C328.193298,151.749924 336.727356,153.058762 345.056458,155.174377 
	C353.632599,157.352753 360.015320,154.744217 366.031250,148.604370 
	C380.773315,133.558548 395.877808,118.867813 410.836456,104.034203 
	C420.106171,106.023178 429.374542,108.018654 438.646118,109.998863 
	C444.960480,111.347473 451.368256,112.355186 457.577179,114.080498 
	C469.192413,117.308090 472.802582,130.973251 463.946808,140.510880 
	C461.465729,143.183044 458.809540,145.692627 456.155640,148.596436 
	C454.347504,150.140106 452.404694,151.149673 450.920410,152.621582 
	C437.312469,166.116150 423.584778,179.499817 410.319977,193.326355 
	C404.078125,199.832504 397.386353,201.716843 388.748657,199.527359 
	C380.879791,197.532761 372.773499,196.474625 364.337952,195.029846 
	C357.879089,193.718185 351.854095,192.380402 345.427795,191.096115 
	C341.401642,190.308456 337.509491,190.040237 334.210266,188.501083 
	C328.238922,185.715317 324.805481,180.677826 323.999115,173.988449 
	C323.826538,172.556610 323.344269,171.162079 322.925659,169.350906 
z"/>
<path fill="#FFA24B" opacity="1.000000" stroke="none" 
	d="
M410.974335,103.718674 
	C395.877808,118.867813 380.773315,133.558548 366.031250,148.604370 
	C360.015320,154.744217 353.632599,157.352753 345.056458,155.174377 
	C336.727356,153.058762 328.193298,151.749924 319.344452,150.096375 
	C312.930328,149.071472 306.920990,148.037033 300.485779,146.957840 
	C295.132690,145.182678 290.205444,143.452271 285.112946,141.401001 
	C285.580780,139.944946 285.994629,138.590363 286.878937,137.706451 
	C312.726532,111.869736 338.621033,86.079956 364.802795,60.114952 
	C375.084564,61.794064 385.079071,63.601593 395.055725,65.502960 
	C400.740906,66.586456 406.415436,67.740837 412.060974,69.013199 
	C418.117584,70.378197 422.170349,74.100426 423.609344,80.159233 
	C424.930176,85.720352 423.990540,90.843170 419.575043,94.988861 
	C416.676117,97.710571 413.927917,100.592804 410.974335,103.718674 
z"/>
</svg>